<svg viewBox="0 0 357 122" fill="none" xmlns="http://www.w3.org/2000/svg">
<title>Scroll to see my work</title>
<path d="M93.0661 56.4988C91.8661 56.4988 90.7327 56.2905 89.6661 55.8738C88.5994 55.4572 87.7161 54.8738 87.0161 54.1238C86.6827 53.8405 86.6911 53.5488 87.0411 53.2488C87.3411 52.9822 87.6244 52.9905 87.8911 53.2738C88.4744 53.8905 89.2244 54.3738 90.1411 54.7238C91.0577 55.0738 92.0327 55.2488 93.0661 55.2488C94.4994 55.2488 95.6161 54.9572 96.4161 54.3738C97.2161 53.7905 97.6161 52.9822 97.6161 51.9488C97.6161 50.8655 97.1994 49.9988 96.3661 49.3488C95.5327 48.6988 94.2327 48.2405 92.4661 47.9738C90.7494 47.6905 89.4827 47.1488 88.6661 46.3488C87.8494 45.5488 87.4411 44.4322 87.4411 42.9988C87.4411 41.5155 87.9161 40.3655 88.8661 39.5488C89.8161 38.7155 91.1327 38.2988 92.8161 38.2988C93.6827 38.2988 94.5827 38.4655 95.5161 38.7988C96.4494 39.1322 97.3161 39.5905 98.1161 40.1738C98.4327 40.4405 98.4661 40.7322 98.2161 41.0488C97.9661 41.3822 97.6827 41.4238 97.3661 41.1738C96.6827 40.6572 95.9327 40.2572 95.1161 39.9738C94.3161 39.6905 93.5494 39.5488 92.8161 39.5488C91.5161 39.5488 90.4994 39.8572 89.7661 40.4738C89.0494 41.0738 88.6911 41.9155 88.6911 42.9988C88.6911 44.0655 89.0077 44.9072 89.6411 45.5238C90.2911 46.1238 91.2994 46.5322 92.6661 46.7488C94.7994 47.0655 96.3661 47.6488 97.3661 48.4988C98.3661 49.3322 98.8661 50.4822 98.8661 51.9488C98.8661 53.3655 98.3577 54.4822 97.3411 55.2988C96.3244 56.0988 94.8994 56.4988 93.0661 56.4988Z" fill="#474646"/>
<path d="M105.095 62.5833C103.678 62.5833 102.562 62.1 101.745 61.1333C100.928 60.15 100.52 58.825 100.52 57.1583C100.52 55.475 100.928 54.15 101.745 53.1833C102.562 52.2166 103.678 51.7333 105.095 51.7333C106.478 51.7333 107.578 52.2083 108.395 53.1583C108.512 53.275 108.562 53.4166 108.545 53.5833C108.545 53.75 108.478 53.8916 108.345 54.0083C108.228 54.1083 108.087 54.1583 107.92 54.1583C107.753 54.1416 107.612 54.075 107.495 53.9583C106.928 53.2916 106.128 52.9583 105.095 52.9583C104.028 52.9583 103.195 53.325 102.595 54.0583C101.995 54.7916 101.695 55.825 101.695 57.1583C101.695 58.5083 101.995 59.55 102.595 60.2833C103.195 61.0166 104.028 61.3833 105.095 61.3833C106.145 61.3833 106.945 61.0583 107.495 60.4083C107.612 60.275 107.753 60.2 107.92 60.1833C108.087 60.1666 108.228 60.2166 108.345 60.3333C108.478 60.4333 108.545 60.5666 108.545 60.7333C108.562 60.9 108.512 61.05 108.395 61.1833C107.562 62.1166 106.462 62.5833 105.095 62.5833Z" fill="#474646"/>
<path d="M112.081 63.5589C111.914 63.5589 111.773 63.5006 111.656 63.3839C111.539 63.2672 111.481 63.1339 111.481 62.9839V53.3339C111.481 53.1672 111.539 53.0256 111.656 52.9089C111.773 52.7922 111.914 52.7339 112.081 52.7339C112.248 52.7339 112.381 52.7922 112.481 52.9089C112.598 53.0256 112.656 53.1672 112.656 53.3339V53.9589C112.906 53.6589 113.256 53.4006 113.706 53.1839C114.156 52.9506 114.589 52.8006 115.006 52.7339C115.589 52.6506 116.181 52.7006 116.781 52.8839C117.381 53.0506 117.914 53.3422 118.381 53.7589C118.864 54.1756 119.198 54.7256 119.381 55.4089C119.431 55.5589 119.414 55.7089 119.331 55.8589C119.248 55.9922 119.131 56.0839 118.981 56.1339C118.814 56.1672 118.656 56.1422 118.506 56.0589C118.373 55.9756 118.289 55.8589 118.256 55.7089C118.123 55.2256 117.889 54.8422 117.556 54.5589C117.223 54.2756 116.839 54.0839 116.406 53.9839C115.989 53.8839 115.581 53.8672 115.181 53.9339C114.464 54.0172 113.864 54.2839 113.381 54.7339C112.898 55.1839 112.656 55.9006 112.656 56.8839V62.9839C112.656 63.1339 112.598 63.2672 112.481 63.3839C112.381 63.5006 112.248 63.5589 112.081 63.5589Z" fill="#474646"/>
<path d="M126.792 63.2903C125.376 63.2903 124.259 62.807 123.442 61.8403C122.626 60.857 122.217 59.532 122.217 57.8653C122.217 56.182 122.626 54.857 123.442 53.8903C124.259 52.9237 125.376 52.4403 126.792 52.4403C128.192 52.4403 129.301 52.9237 130.117 53.8903C130.951 54.857 131.367 56.182 131.367 57.8653C131.367 59.532 130.951 60.857 130.117 61.8403C129.301 62.807 128.192 63.2903 126.792 63.2903ZM126.792 62.0903C127.876 62.0903 128.709 61.7237 129.292 60.9903C129.876 60.257 130.167 59.2153 130.167 57.8653C130.167 56.532 129.876 55.4987 129.292 54.7653C128.709 54.032 127.876 53.6653 126.792 53.6653C125.726 53.6653 124.892 54.032 124.292 54.7653C123.692 55.4987 123.392 56.532 123.392 57.8653C123.392 59.2153 123.692 60.257 124.292 60.9903C124.892 61.7237 125.726 62.0903 126.792 62.0903Z" fill="#474646"/>
<path d="M137.001 61.8533C136.334 61.8533 135.792 61.6617 135.376 61.2783C134.976 60.8783 134.776 60.3533 134.776 59.7033V43.9783C134.776 43.8117 134.834 43.67 134.951 43.5533C135.067 43.4367 135.209 43.3783 135.376 43.3783C135.542 43.3783 135.684 43.4367 135.801 43.5533C135.917 43.67 135.976 43.8117 135.976 43.9783V59.7033C135.976 59.77 135.984 59.8867 136.001 60.0533C136.034 60.2033 136.126 60.345 136.276 60.4783C136.426 60.595 136.667 60.6533 137.001 60.6533H138.976C139.142 60.6533 139.284 60.7117 139.401 60.8283C139.517 60.945 139.576 61.0867 139.576 61.2533C139.576 61.42 139.517 61.5617 139.401 61.6783C139.284 61.795 139.142 61.8533 138.976 61.8533H137.001Z" fill="#474646"/>
<path d="M145.082 60.3499C144.415 60.3499 143.874 60.1582 143.457 59.7749C143.057 59.3749 142.857 58.8499 142.857 58.1999V42.4749C142.857 42.3082 142.915 42.1666 143.032 42.0499C143.149 41.9332 143.29 41.8749 143.457 41.8749C143.624 41.8749 143.765 41.9332 143.882 42.0499C143.999 42.1666 144.057 42.3082 144.057 42.4749V58.1999C144.057 58.2666 144.065 58.3832 144.082 58.5499C144.115 58.6999 144.207 58.8416 144.357 58.9749C144.507 59.0916 144.749 59.1499 145.082 59.1499H147.057C147.224 59.1499 147.365 59.2082 147.482 59.3249C147.599 59.4416 147.657 59.5832 147.657 59.7499C147.657 59.9166 147.599 60.0582 147.482 60.1749C147.365 60.2916 147.224 60.3499 147.057 60.3499H145.082Z" fill="#474646"/>
<path d="M161.016 55.6526C160.332 55.6526 159.791 55.461 159.391 55.0776C159.007 54.6776 158.816 54.1526 158.816 53.5026V46.4776H156.416C156.249 46.4776 156.107 46.4193 155.991 46.3026C155.891 46.186 155.841 46.0443 155.841 45.8776C155.841 45.711 155.891 45.5776 155.991 45.4776C156.107 45.361 156.249 45.3026 156.416 45.3026H158.816V41.6276C158.816 41.461 158.866 41.3193 158.966 41.2026C159.082 41.086 159.224 41.0276 159.391 41.0276C159.557 41.0276 159.699 41.086 159.816 41.2026C159.932 41.3193 159.991 41.461 159.991 41.6276V45.3026H163.091C163.257 45.3026 163.399 45.361 163.516 45.4776C163.632 45.5776 163.691 45.711 163.691 45.8776C163.691 46.0443 163.632 46.186 163.516 46.3026C163.399 46.4193 163.257 46.4776 163.091 46.4776H159.991V53.5026C159.991 53.5693 159.999 53.686 160.016 53.8526C160.049 54.0026 160.141 54.1443 160.291 54.2776C160.441 54.3943 160.682 54.4526 161.016 54.4526H162.966C163.149 54.4526 163.299 54.511 163.416 54.6276C163.532 54.7443 163.591 54.886 163.591 55.0526C163.591 55.2193 163.532 55.361 163.416 55.4776C163.299 55.5943 163.149 55.6526 162.966 55.6526H161.016Z" fill="#474646"/>
<path d="M170.293 52.1727C168.877 52.1727 167.76 51.6893 166.943 50.7227C166.127 49.7393 165.718 48.4143 165.718 46.7477C165.718 45.0643 166.127 43.7393 166.943 42.7727C167.76 41.806 168.877 41.3227 170.293 41.3227C171.693 41.3227 172.802 41.806 173.618 42.7727C174.452 43.7393 174.868 45.0643 174.868 46.7477C174.868 48.4143 174.452 49.7393 173.618 50.7227C172.802 51.6893 171.693 52.1727 170.293 52.1727ZM170.293 50.9727C171.377 50.9727 172.21 50.606 172.793 49.8727C173.377 49.1393 173.668 48.0977 173.668 46.7477C173.668 45.4143 173.377 44.381 172.793 43.6477C172.21 42.9143 171.377 42.5477 170.293 42.5477C169.227 42.5477 168.393 42.9143 167.793 43.6477C167.193 44.381 166.893 45.4143 166.893 46.7477C166.893 48.0977 167.193 49.1393 167.793 49.8727C168.393 50.606 169.227 50.9727 170.293 50.9727Z" fill="#474646"/>
<path d="M187.314 44.8567C186.364 44.8567 185.523 44.6484 184.789 44.2317C184.073 43.8151 183.564 43.2567 183.264 42.5567C183.198 42.4067 183.198 42.2567 183.264 42.1067C183.331 41.9567 183.439 41.8484 183.589 41.7817C183.739 41.7151 183.889 41.7151 184.039 41.7817C184.189 41.8484 184.298 41.9567 184.364 42.1067C184.581 42.5901 184.948 42.9734 185.464 43.2567C185.998 43.5234 186.614 43.6567 187.314 43.6567C188.031 43.6567 188.589 43.5901 188.989 43.4567C189.389 43.3067 189.673 43.1317 189.839 42.9317C190.023 42.7151 190.131 42.5067 190.164 42.3067C190.214 42.0901 190.239 41.9234 190.239 41.8067C190.239 41.5567 190.181 41.3151 190.064 41.0817C189.948 40.8484 189.698 40.6317 189.314 40.4317C188.931 40.2151 188.339 40.0234 187.539 39.8567C186.973 39.7401 186.381 39.5734 185.764 39.3567C185.164 39.1401 184.656 38.8401 184.239 38.4567C183.823 38.0567 183.614 37.5401 183.614 36.9067C183.631 36.0567 183.989 35.3651 184.689 34.8317C185.389 34.2817 186.298 34.0067 187.414 34.0067C188.248 34.0067 188.998 34.1901 189.664 34.5567C190.348 34.9067 190.848 35.3901 191.164 36.0067C191.248 36.1401 191.264 36.2901 191.214 36.4567C191.164 36.6067 191.073 36.7234 190.939 36.8067C190.773 36.8734 190.614 36.8901 190.464 36.8567C190.314 36.8067 190.206 36.7067 190.139 36.5567C189.956 36.2234 189.639 35.9234 189.189 35.6567C188.739 35.3734 188.148 35.2317 187.414 35.2317C186.998 35.2317 186.589 35.2901 186.189 35.4067C185.789 35.5067 185.456 35.6817 185.189 35.9317C184.939 36.1651 184.806 36.4984 184.789 36.9317C184.789 37.0317 184.831 37.1901 184.914 37.4067C184.998 37.6067 185.248 37.8234 185.664 38.0567C186.081 38.2901 186.781 38.5067 187.764 38.7067C188.348 38.8234 188.914 38.9984 189.464 39.2317C190.031 39.4484 190.498 39.7651 190.864 40.1817C191.248 40.5817 191.431 41.1234 191.414 41.8067C191.414 42.0901 191.364 42.4067 191.264 42.7567C191.164 43.1067 190.973 43.4401 190.689 43.7567C190.406 44.0734 189.989 44.3317 189.439 44.5317C188.906 44.7484 188.198 44.8567 187.314 44.8567Z" fill="#474646"/>
<path d="M198.07 40.3406C196.653 40.3406 195.537 39.8573 194.72 38.8906C193.903 37.9073 193.495 36.5823 193.495 34.9156C193.495 33.2323 193.903 31.9073 194.72 30.9406C195.537 29.974 196.653 29.4906 198.07 29.4906C199.303 29.4906 200.337 29.9156 201.17 30.7656C202.02 31.6156 202.478 32.7656 202.545 34.2156V34.2906C202.545 34.4406 202.487 34.574 202.37 34.6906C202.27 34.8073 202.128 34.8656 201.945 34.8656H194.695C194.695 36.149 194.962 37.1823 195.495 37.9656C196.045 38.749 196.903 39.1406 198.07 39.1406C198.67 39.1406 199.228 39.0156 199.745 38.7656C200.278 38.499 200.687 38.1573 200.97 37.7406C201.07 37.6073 201.195 37.524 201.345 37.4906C201.512 37.4573 201.662 37.4906 201.795 37.5906C201.928 37.674 202.012 37.799 202.045 37.9656C202.078 38.1323 202.045 38.2823 201.945 38.4156C201.545 38.999 200.995 39.4656 200.295 39.8156C199.612 40.1656 198.87 40.3406 198.07 40.3406ZM194.77 33.6906H201.245C201.078 32.7406 200.712 32.0073 200.145 31.4906C199.595 30.974 198.903 30.7156 198.07 30.7156C197.17 30.7156 196.437 30.974 195.87 31.4906C195.32 32.0073 194.953 32.7406 194.77 33.6906Z" fill="#474646"/>
<path d="M209.314 36.0604C207.897 36.0604 206.781 35.577 205.964 34.6104C205.147 33.627 204.739 32.302 204.739 30.6354C204.739 28.952 205.147 27.627 205.964 26.6604C206.781 25.6937 207.897 25.2104 209.314 25.2104C210.547 25.2104 211.581 25.6354 212.414 26.4854C213.264 27.3354 213.722 28.4854 213.789 29.9354V30.0104C213.789 30.1604 213.731 30.2937 213.614 30.4104C213.514 30.527 213.372 30.5854 213.189 30.5854H205.939C205.939 31.8687 206.206 32.902 206.739 33.6854C207.289 34.4687 208.147 34.8604 209.314 34.8604C209.914 34.8604 210.472 34.7354 210.989 34.4854C211.522 34.2187 211.931 33.877 212.214 33.4604C212.314 33.327 212.439 33.2437 212.589 33.2104C212.756 33.177 212.906 33.2104 213.039 33.3104C213.172 33.3937 213.256 33.5187 213.289 33.6854C213.322 33.852 213.289 34.002 213.189 34.1354C212.789 34.7187 212.239 35.1854 211.539 35.5354C210.856 35.8854 210.114 36.0604 209.314 36.0604ZM206.014 29.4104H212.489C212.322 28.4604 211.956 27.727 211.389 27.2104C210.839 26.6937 210.147 26.4354 209.314 26.4354C208.414 26.4354 207.681 26.6937 207.114 27.2104C206.564 27.727 206.197 28.4604 206.014 29.4104Z" fill="#474646"/>
<path d="M223.796 30.9843C223.629 30.9843 223.488 30.9259 223.371 30.8093C223.271 30.6926 223.221 30.5593 223.221 30.4093V20.7343C223.221 20.5843 223.271 20.4509 223.371 20.3343C223.488 20.2009 223.629 20.1343 223.796 20.1343C223.963 20.1343 224.104 20.2009 224.221 20.3343C224.338 20.4509 224.396 20.5843 224.396 20.7343V21.4093C224.763 21.0259 225.188 20.7176 225.671 20.4843C226.154 20.2509 226.671 20.1343 227.221 20.1343C227.904 20.1343 228.504 20.3009 229.021 20.6343C229.538 20.9509 229.938 21.4009 230.221 21.9843C230.571 21.4343 231.029 20.9926 231.596 20.6593C232.163 20.3093 232.796 20.1343 233.496 20.1343C234.563 20.1343 235.404 20.5176 236.021 21.2843C236.654 22.0509 236.971 23.0759 236.971 24.3593V30.3843C236.971 30.5343 236.913 30.6676 236.796 30.7843C236.696 30.9009 236.563 30.9593 236.396 30.9593C236.229 30.9593 236.088 30.9009 235.971 30.7843C235.854 30.6676 235.796 30.5343 235.796 30.3843V24.3593C235.796 24.1259 235.771 23.8426 235.721 23.5093C235.671 23.1759 235.571 22.8426 235.421 22.5093C235.271 22.1759 235.038 21.9009 234.721 21.6843C234.421 21.4509 234.013 21.3343 233.496 21.3343C232.679 21.3343 232.013 21.6259 231.496 22.2093C230.979 22.7759 230.721 23.4926 230.721 24.3593V30.3843C230.721 30.5343 230.663 30.6676 230.546 30.7843C230.446 30.9009 230.313 30.9593 230.146 30.9593C229.979 30.9593 229.829 30.9009 229.696 30.7843C229.579 30.6676 229.521 30.5343 229.521 30.3843V24.4093C229.521 23.8759 229.438 23.3759 229.271 22.9093C229.121 22.4426 228.879 22.0676 228.546 21.7843C228.213 21.4843 227.771 21.3343 227.221 21.3343C226.471 21.3343 225.813 21.5676 225.246 22.0343C224.679 22.4843 224.396 23.0759 224.396 23.8093V30.4093C224.396 30.5593 224.338 30.6926 224.221 30.8093C224.104 30.9259 223.963 30.9843 223.796 30.9843Z" fill="#474646"/>
<path d="M241.91 34.55C241.743 34.4833 241.627 34.375 241.56 34.225C241.493 34.075 241.493 33.925 241.56 33.775L243.41 29.075L239.485 19.3C239.418 19.15 239.418 19 239.485 18.85C239.552 18.7 239.66 18.5917 239.81 18.525C239.96 18.475 240.11 18.4833 240.26 18.55C240.41 18.6 240.518 18.7083 240.585 18.875L244.06 27.475L247.46 18.875C247.527 18.7083 247.627 18.6 247.76 18.55C247.91 18.4833 248.068 18.475 248.235 18.525C248.385 18.5917 248.493 18.7 248.56 18.85C248.627 19 248.627 19.15 248.56 19.3L242.66 34.225C242.593 34.375 242.485 34.475 242.335 34.525C242.202 34.5917 242.06 34.6 241.91 34.55Z" fill="#474646"/>
<path d="M254.358 32.7112C254.101 32.5526 254.011 32.3346 254.087 32.0571L256.559 22.522C256.615 22.3642 256.709 22.243 256.842 22.1582C256.981 22.0583 257.133 22.029 257.298 22.0703C257.456 22.1266 257.574 22.2285 257.651 22.3759C257.736 22.5084 257.762 22.6495 257.727 22.7993L255.71 30.558L260.249 26.7608C260.454 26.5999 260.67 26.573 260.896 26.68C261.122 26.7871 261.237 26.9711 261.243 27.2319L261.177 33.149L265.862 26.7096C265.963 26.5732 266.092 26.496 266.248 26.4778C266.411 26.4445 266.561 26.4786 266.697 26.5801C266.841 26.6666 266.918 26.7954 266.929 26.9666C266.963 27.1299 266.928 27.2798 266.827 27.4161L261.022 35.3441C260.856 35.5787 260.637 35.6504 260.367 35.5592C260.082 35.4608 259.943 35.2662 259.952 34.9752L260.028 28.5099L255.05 32.6519C254.83 32.8429 254.6 32.8627 254.358 32.7112Z" fill="#474646"/>
<path d="M267.319 42.6219C266.054 41.9836 265.275 41.0489 264.982 39.8179C264.696 38.5721 264.928 37.2052 265.679 35.7174C266.438 34.2146 267.4 33.2158 268.564 32.7209C269.729 32.2259 270.943 32.2976 272.208 32.936C273.458 33.5669 274.23 34.4978 274.523 35.7288C274.831 36.9673 274.606 38.3379 273.848 39.8406C273.097 41.3285 272.128 42.3235 270.941 42.8258C269.776 43.3208 268.569 43.2528 267.319 42.6219ZM267.86 41.5507C268.827 42.0389 269.736 42.0871 270.587 41.6953C271.438 41.3035 272.168 40.505 272.776 39.2998C273.377 38.1096 273.583 37.0557 273.392 36.1381C273.202 35.2206 272.623 34.5178 271.656 34.0296C270.704 33.5489 269.795 33.5007 268.929 33.885C268.063 34.2693 267.329 35.0566 266.728 36.2469C266.12 37.452 265.918 38.5171 266.124 39.4421C266.329 40.3672 266.907 41.07 267.86 41.5507Z" fill="#474646"/>
<path d="M272.588 48.5745C272.442 48.4939 272.346 48.3743 272.3 48.2158C272.255 48.0572 272.268 47.9123 272.341 47.781L277.008 39.3346C277.088 39.1888 277.208 39.093 277.366 39.0473C277.525 39.0016 277.677 39.019 277.823 39.0996C277.969 39.1802 278.057 39.2958 278.088 39.4463C278.134 39.6048 278.117 39.757 278.036 39.9029L277.734 40.4499C278.098 40.3083 278.529 40.2514 279.028 40.2794C279.534 40.2928 279.986 40.3711 280.383 40.5143C280.934 40.7234 281.428 41.0533 281.864 41.504C282.309 41.94 282.634 42.4533 282.841 43.0437C283.063 43.6421 283.089 44.2847 282.919 44.9715C282.89 45.127 282.803 45.2502 282.657 45.3412C282.52 45.4176 282.373 45.4414 282.218 45.4126C282.056 45.3612 281.929 45.2627 281.838 45.1172C281.762 44.9798 281.746 44.8374 281.789 44.69C281.906 44.2025 281.887 43.7541 281.732 43.3449C281.578 42.9357 281.335 42.5825 281.004 42.2854C280.688 41.9964 280.338 41.7843 279.956 41.6492C279.288 41.3756 278.634 41.3188 277.993 41.4789C277.353 41.639 276.795 42.1494 276.319 43.0101L273.369 48.3493C273.296 48.4806 273.181 48.5691 273.022 48.6148C272.878 48.6685 272.733 48.6551 272.588 48.5745Z" fill="#474646"/>
<path d="M280.269 54.4865C280.139 54.3821 280.065 54.2478 280.048 54.0838C280.019 53.9328 280.057 53.7923 280.162 53.6624L291.096 40.063C291.2 39.9331 291.335 39.8592 291.499 39.8414C291.663 39.8236 291.81 39.8669 291.94 39.9713C292.069 40.0757 292.143 40.21 292.161 40.374C292.179 40.538 292.136 40.685 292.031 40.8149L284.528 50.1475L291.845 50.0638C292.011 50.0695 292.148 50.1257 292.254 50.2327C292.374 50.3501 292.437 50.4974 292.444 50.6744C292.436 50.8175 292.373 50.9488 292.256 51.0683C292.162 51.1852 292.027 51.2473 291.849 51.2547L286.875 51.2972L286.631 58.383C286.649 58.547 286.593 58.6835 286.463 58.7925C286.332 58.9015 286.184 58.9532 286.017 58.9476C285.864 58.9524 285.732 58.8897 285.623 58.7592C285.504 58.6418 285.442 58.5063 285.437 58.3527L285.704 51.3177L283.572 51.336L281.097 54.4143C280.993 54.5442 280.864 54.6116 280.71 54.6164C280.546 54.6342 280.399 54.5909 280.269 54.4865Z" fill="#474646"/>
<path d="M0.411828 54.2791C-0.0348243 54.6039 -0.133574 55.2293 0.191264 55.676C0.516102 56.1226 1.14152 56.2214 1.58817 55.8966L0.411828 54.2791ZM55.9723 44.0388L56.3403 43.109L56.3403 43.109L55.9723 44.0388ZM88.6445 72.9582L88.0306 73.7476L88.6445 72.9582ZM150.094 72.9572L150.448 73.8922L150.448 73.8922L150.094 72.9572ZM188.424 57.2703L188.837 58.1811L188.85 58.1753L188.424 57.2703ZM252.195 47.3808L252.709 46.5233L252.709 46.5233L252.195 47.3808ZM282.818 71.7295L283.453 70.9572L283.453 70.9572L282.818 71.7295ZM312.828 92.8728L313.363 92.0281L313.363 92.0281L312.828 92.8728ZM341.381 100.233C341.905 100.058 342.188 99.4916 342.013 98.9677C341.838 98.4437 341.272 98.1606 340.748 98.3352L341.381 100.233ZM355 110.5L355.232 111.473L356.333 111.21L355.937 110.15L355 110.5ZM1.58817 55.8966C16.8726 44.7806 37.184 37.6772 55.6042 44.9686L56.3403 43.109C36.9987 35.4529 15.9465 42.9812 0.411828 54.2791L1.58817 55.8966ZM55.6042 44.9686C64.1635 48.3566 68.5519 52.6209 72.6353 57.482C76.7341 62.3614 80.618 67.9822 88.0306 73.7476L89.2585 72.1689C82.0635 66.5727 78.3718 61.2016 74.1667 56.1956C69.9461 51.1712 65.3022 46.6564 56.3403 43.109L55.6042 44.9686ZM88.0306 73.7476C91.2398 76.2436 96.0048 77.7433 101.412 78.5617C106.844 79.384 113.046 79.5356 119.234 79.2455C131.589 78.6661 144.058 76.3161 150.448 73.8922L149.739 72.0222C143.615 74.3452 131.374 76.674 119.141 77.2477C113.035 77.534 106.973 77.3806 101.711 76.5842C96.4237 75.7839 92.0643 74.3512 89.2585 72.1689L88.0306 73.7476ZM150.448 73.8922C163.431 68.9679 176.126 63.9469 188.837 58.181L188.011 56.3597C175.356 62.0999 162.706 67.1035 149.739 72.0222L150.448 73.8922ZM188.424 57.2703C188.85 58.1753 188.85 58.1753 188.85 58.1752C188.85 58.1751 188.851 58.1749 188.851 58.1746C188.852 58.1741 188.854 58.1732 188.857 58.172C188.862 58.1697 188.869 58.1661 188.88 58.1612C188.901 58.1515 188.932 58.1368 188.974 58.1174C189.058 58.0786 189.183 58.0207 189.349 57.9455C189.679 57.7951 190.167 57.5751 190.796 57.2988C192.054 56.7461 193.875 55.968 196.119 55.0689C200.61 53.2699 206.787 50.9901 213.542 49.0618C220.302 47.1319 227.609 45.5639 234.366 45.1708C241.146 44.7765 247.239 45.5734 251.68 48.2383L252.709 46.5233C247.761 43.5544 241.188 42.7706 234.25 43.1742C227.29 43.5791 219.827 45.1877 212.993 47.1386C206.152 49.0912 199.908 51.3965 195.376 53.2123C193.108 54.1206 191.267 54.9074 189.992 55.4677C189.354 55.7479 188.857 55.9715 188.519 56.1255C188.35 56.2025 188.221 56.262 188.134 56.3026C188.09 56.3228 188.056 56.3383 188.034 56.3489C188.023 56.3542 188.014 56.3582 188.008 56.3609C188.005 56.3623 188.003 56.3634 188.001 56.3641C188 56.3645 188 56.3648 187.999 56.365C187.999 56.3652 187.999 56.3654 188.424 57.2703ZM251.68 48.2383C262.663 54.8278 272.158 64.2572 282.183 72.5019L283.453 70.9572C273.631 62.8786 263.859 53.2132 252.709 46.5233L251.68 48.2383ZM282.183 72.5019C291.528 80.1871 302.108 87.2623 312.293 93.7174L313.363 92.0281C303.198 85.5856 292.701 78.5628 283.453 70.9572L282.183 72.5019ZM312.293 93.7174C321.07 99.2805 330.676 103.801 341.381 100.233L340.748 98.3352C330.978 101.592 322.085 97.5558 313.363 92.0281L312.293 93.7174ZM340.063 73.3498L354.063 110.85L355.937 110.15L341.937 72.6502L340.063 73.3498ZM354.768 109.527L310.768 120.027L311.232 121.973L355.232 111.473L354.768 109.527Z" fill="black"/>
</svg>
